<svg id="Layer_1" data-name="Layer 1" xmlns="http://www.w3.org/2000/svg" viewBox="0 0 283 222"><defs><style>.cls-1{fill:#fff;}</style></defs><path d="M459,523H176V301H459ZM339.87,373.59c-24.44,2.07-55.82,29.82-52.83,69.58,8,79.4,121.31,78.75,130.16,5.77-9.3,26.93-37.64,45.08-66,40.19C291.06,479.42,281.75,397.36,339.87,373.59Zm52.24,101.75c-32.06,13.08-69.88-8-71.29-43.64-3.05-36.57,35.58-62.84,69.19-50.07-51.06-33.47-113.55,35.86-68.3,86.06C342.59,489.69,376,488.68,392.11,475.34Zm-29.13-2c-18.84-10-28.72-24-26.47-44.3,1.8-16.29,11-28.17,26.27-33.59,23-8.14,40.3.69,53,21.31-2-18.21-23.43-34.15-44.36-33.7C317.41,384.82,309.84,462.63,363,473.36Zm14.76-31.29c-6.79-9.87-16-16.34-28.06-16.73-1.34-.07-4.06,1.91-3.95,2.56.48,2.77-2.57,7.44,3,8,13.59,1.27,20.26,9.59,22.79,22,.65,3.19,1.77,4.29,5.09,4.55,13.59,1.85.57-22.33,29.39-26.36,5.75-.78,3-5,3.34-7.74.47-3.64-2.28-3.23-4.71-3C393.2,426.24,384.58,431.82,377.74,442.07Zm-.37-27.79c-9.92.21-9.59,15.07.34,15.12C387.54,428.88,387.49,414.34,377.37,414.28Z" transform="translate(-176 -301)"/><path class="cls-1" d="M339.87,373.59c-58.13,23.79-48.8,105.82,11.29,115.54,28.4,4.89,56.74-13.26,66-40.19-8.89,73-122.14,73.59-130.16-5.77C284.05,403.41,315.43,375.66,339.87,373.59Z" transform="translate(-176 -301)"/><path class="cls-1" d="M392.11,475.34c-16.15,13.34-49.52,14.35-70.4-7.65C276.44,417.45,339,348.17,390,381.63c-33.6-12.76-72.24,13.5-69.19,50.08C322.23,467.3,360.05,488.43,392.11,475.34Z" transform="translate(-176 -301)"/><path class="cls-1" d="M363,473.36c-53.16-10.75-45.54-88.54,8.43-90.28,20.93-.45,42.37,15.49,44.36,33.7-12.69-20.62-30-29.45-53-21.31-15.31,5.42-24.47,17.3-26.27,33.59C334.26,449.4,344.14,463.38,363,473.36Z" transform="translate(-176 -301)"/><path class="cls-1" d="M377.74,442.07c6.84-10.25,15.46-15.83,26.88-16.76,2.43-.2,5.18-.61,4.71,3-.35,2.76,2.41,7-3.34,7.74-28.85,4.05-15.77,28.2-29.39,26.36-3.32-.26-4.44-1.36-5.09-4.55-2.53-12.45-9.2-20.77-22.79-22-5.56-.51-2.51-5.18-3-8-.11-.65,2.61-2.63,3.95-2.56C361.74,425.73,370.94,432.2,377.74,442.07Z" transform="translate(-176 -301)"/><path class="cls-1" d="M377.37,414.28c10.12.06,10.17,14.6.34,15.12C367.78,429.34,367.45,414.49,377.37,414.28Z" transform="translate(-176 -301)"/></svg>